<svg xmlns="http://www.w3.org/2000/svg" viewBox="0 0 750 500"><g id="freepik--background-complete--inject-11"><rect x="496.54" y="50.66" width="130.11" height="87.68" style="fill:#fff;stroke:#ebebeb;stroke-miterlimit:10"></rect><path d="M509.12,57.29a3,3,0,1,1-3-3A3,3,0,0,1,509.12,57.29Z" style="fill:#37474f"></path><path d="M521.35,57.29a3,3,0,1,1-3-3A3,3,0,0,1,521.35,57.29Z" style="fill:#ebebeb"></path><path d="M533.59,57.29a3,3,0,1,1-3-3A3,3,0,0,1,533.59,57.29Z" style="fill:#EAB308"></path><line x1="496.54" y1="63.87" x2="626.66" y2="63.87" style="fill:none;stroke:#ebebeb;stroke-miterlimit:10"></line><path d="M66.83,51.4V238.68h143.3V51.4ZM206.35,234.9H70.61V55.18H206.35Z" style="fill:#ebebeb"></path><polygon points="206.35 55.18 206.35 234.9 141.84 234.9 141.84 56.16 138.07 56.16 138.07 234.9 70.61 234.9 70.61 55.18 206.35 55.18" style="fill:#fff"></polygon><rect x="138.07" y="56.16" width="3.77" height="180.63" style="fill:#ebebeb"></rect><rect x="63.41" y="59.03" width="150.15" height="5.26" transform="translate(276.97 123.33) rotate(180)" style="fill:#ebebeb"></rect><rect x="63.41" y="64.95" width="150.15" height="5.26" transform="translate(276.97 135.17) rotate(180)" style="fill:#ebebeb"></rect><rect x="63.41" y="70.87" width="150.15" height="5.26" transform="translate(276.97 147.01) rotate(180)" style="fill:#ebebeb"></rect><rect x="63.41" y="76.79" width="150.15" height="5.26" transform="translate(276.97 158.85) rotate(180)" style="fill:#ebebeb"></rect><rect x="63.41" y="82.71" width="150.15" height="5.26" transform="translate(276.97 170.68) rotate(180)" style="fill:#ebebeb"></rect><rect x="63.41" y="88.63" width="150.15" height="5.26" transform="translate(276.97 182.52) rotate(180)" style="fill:#ebebeb"></rect><rect x="63.41" y="94.55" width="150.15" height="5.26" transform="translate(276.97 194.36) rotate(180)" style="fill:#ebebeb"></rect><rect x="63.41" y="100.47" width="150.15" height="5.26" transform="translate(276.97 206.2) rotate(180)" style="fill:#ebebeb"></rect><rect x="63.41" y="106.39" width="150.15" height="5.26" transform="translate(276.97 218.04) rotate(180)" style="fill:#ebebeb"></rect><rect x="74.63" y="57.97" width="0.94" height="121.28" style="fill:#263238"></rect><polygon points="73.43 183.65 76.78 183.65 75.94 178.83 74.27 178.83 73.43 183.65" style="fill:#263238"></polygon><rect x="71.23" y="57.97" width="0.94" height="175.45" style="fill:#263238"></rect><polygon points="70.03 236.96 73.38 236.96 72.54 232.14 70.86 232.14 70.03 236.96" style="fill:#263238"></polygon><rect x="57.55" y="50.66" width="161.87" height="11.01" transform="translate(276.97 112.32) rotate(180)" style="fill:#dbdbdb"></rect><polygon points="693.38 309.62 517.65 309.62 513.99 237.51 697.04 237.51 693.38 309.62" style="fill:#ebebeb"></polygon><path d="M524.37,245.49h76.45l-1.37,25H526Zm75.52.88H525.31l1.5,23.26h71.8Z" style="fill:#dbdbdb"></path><path d="M525.92,276.72h71.77l-1.12,22.6H527.33Zm70.84.89h-69.9l1.31,20.82h67.55Z" style="fill:#dbdbdb"></path><path d="M554.86,254.68h13.9l-.78,6H555.64Zm12.89.89H555.87l.55,4.26H567.2Z" style="fill:#dbdbdb"></path><path d="M554.86,285h13.9l-.78,6H555.64Zm12.89.89H555.87l.55,4.26H567.2Z" style="fill:#dbdbdb"></path><path d="M610.79,245.49h76.45l-1.38,25H612.4Zm75.52.88H611.73l1.5,23.26H685Z" style="fill:#dbdbdb"></path><path d="M612.34,276.72h71.77L683,299.32H613.75Zm70.84.89h-69.9l1.3,20.82h67.56Z" style="fill:#dbdbdb"></path><path d="M641.28,254.68h13.9l-.78,6H642.06Zm12.89.89H642.29l.55,4.26h10.78Z" style="fill:#dbdbdb"></path><path d="M641.28,285h13.9l-.78,6H642.06Zm12.89.89H642.29l.55,4.26h10.78Z" style="fill:#dbdbdb"></path><polygon points="677.62 309.62 678.73 317.48 680.95 333.26 685.28 333.26 685.28 309.62 677.62 309.62" style="fill:#ebebeb"></polygon><polygon points="677.62 309.62 678.73 317.48 685.28 317.48 685.28 309.62 677.62 309.62" style="fill:#dbdbdb"></polygon><polygon points="533.41 309.62 532.3 317.48 530.08 333.26 525.74 333.26 525.74 309.62 533.41 309.62" style="fill:#ebebeb"></polygon><polygon points="533.41 309.62 532.3 317.48 525.74 317.48 525.74 309.62 533.41 309.62" style="fill:#dbdbdb"></polygon><rect x="653.71" y="216.3" width="33.85" height="8.52" transform="translate(891.2 -450.07) rotate(90)" style="fill:#c7c7c7"></rect><rect x="668.77" y="199.43" width="3.72" height="8.52" transform="translate(874.32 -466.94) rotate(90)" style="fill:#dbdbdb"></rect><rect x="669.94" y="206.74" width="1.38" height="8.52" transform="translate(881.64 -459.63) rotate(90)" style="fill:#dbdbdb"></rect><rect x="668.77" y="226.93" width="3.72" height="8.52" transform="translate(901.82 -439.44) rotate(90)" style="fill:#dbdbdb"></rect><rect x="643.65" y="214.77" width="39.49" height="5.96" transform="translate(881.14 -445.64) rotate(90)" style="fill:#dbdbdb"></rect><rect x="655.82" y="207.52" width="15.19" height="3.58" transform="translate(872.73 -454.11) rotate(90)" style="fill:#ebebeb"></rect><rect x="614.37" y="218.47" width="39.49" height="5.96" transform="translate(1240.77 -66.82) rotate(135.33)" style="fill:#c7c7c7"></rect><rect x="624.45" y="221.67" width="15.19" height="3.58" transform="translate(1238.66 -61.92) rotate(135.33)" style="fill:#dbdbdb"></rect><rect x="640.36" y="217.44" width="29.99" height="10.12" transform="translate(877.86 -432.86) rotate(90)" style="fill:#a6a6a6"></rect><rect x="653.96" y="227.86" width="2.8" height="10.12" transform="translate(888.28 -422.44) rotate(90)" style="fill:#c7c7c7"></rect><rect x="654.82" y="224.09" width="1.08" height="10.12" transform="translate(884.5 -426.21) rotate(90)" style="fill:#c7c7c7"></rect><rect x="669.52" y="219.69" width="28.19" height="6.99" transform="translate(619.02 -493.03) rotate(66.77)" style="fill:#a6a6a6"></rect><rect x="686.16" y="228.69" width="2.63" height="6.99" transform="translate(629.63 -491.14) rotate(66.77)" style="fill:#c7c7c7"></rect><rect x="679.55" y="213.28" width="2.63" height="6.99" transform="translate(611.47 -494.39) rotate(66.77)" style="fill:#c7c7c7"></rect><rect x="681.78" y="216.61" width="1.02" height="6.99" transform="translate(615.4 -493.68) rotate(66.77)" style="fill:#c7c7c7"></rect></g><g id="freepik--Shadow--inject-11"><ellipse cx="586.33" cy="437.94" rx="117.43" ry="17.3" style="fill:#ebebeb"></ellipse></g><g id="freepik--Plant--inject-11"><path d="M102.67,274.7s8.76-31.46,15.76-42.15,20-22.42,20-22.42S138.18,258.64,102.67,274.7Z" style="fill:#EAB308"></path><path d="M103.29,274.17a151.41,151.41,0,0,0,8-15.25,106.06,106.06,0,0,1,4.35-16.55.08.08,0,0,1,.15.06c-1.16,5-2.51,9.9-3.74,14.85,3.54-7.65,6.9-15.41,11.12-22.65a48.35,48.35,0,0,1,4.06-10.07c0-.09.2,0,.15.06a64.87,64.87,0,0,0-2.73,7.55,75.94,75.94,0,0,1,6.66-9.2c.15-.18.46,0,.31.21-5.64,7.2-9.53,15.38-13.23,23.66a126.45,126.45,0,0,0,11-13.75c0-.05.11,0,.08.06a114.76,114.76,0,0,1-11.78,15.27c-2.7,6.07-5.35,12.16-8.57,17.93,6.43-5.43,11.37-12.46,16.27-19.24a.14.14,0,0,1,.24.16c-4.9,7.45-10,14.46-17,20a76.92,76.92,0,0,1-4.71,7.35A.37.37,0,0,1,103.29,274.17Z" style="fill:#263238"></path><path d="M100,277.54s15.76-29,11.18-57.14-9.48-38.15-9.48-38.15S76.88,226,100,277.54Z" style="fill:#EAB308"></path><path d="M93.48,231.93a137.51,137.51,0,0,0,6.08,23.42q.07-15.48.52-31a79.68,79.68,0,0,1-3-19.23c0-.19.27-.18.29,0a109.8,109.8,0,0,0,2.76,16.54q.36-12.78.83-25.54a.11.11,0,0,1,.22,0c0,13.3,0,26.61-.09,39.91a106.77,106.77,0,0,0,4.55-15.81c0-.05.09,0,.09,0a61.68,61.68,0,0,1-4.65,18q-.09,12.76-.34,25.51c2.66-9,5.51-17.79,6.28-27.35a.1.1,0,0,1,.2,0c-.21,10.53-2.93,21.23-6.4,31.13a.52.52,0,0,1-.18.25c-.08,3.11-.16,6.22-.27,9.32a.35.35,0,0,1-.69,0q-.18-9.54-.15-19.07a85.5,85.5,0,0,1-6.22-26.12A.07.07,0,0,1,93.48,231.93Z" style="fill:#263238"></path><path d="M94.56,227.44a53.54,53.54,0,0,1,1.1,7.66c0,.09-.13.1-.15,0a53.22,53.22,0,0,1-1.29-7.64C94.19,227.28,94.52,227.25,94.56,227.44Z" style="fill:#263238"></path><path d="M103.77,206.23c0-.09.15-.06.15,0a19.3,19.3,0,0,1-.79,5.29c0,.14-.24.08-.21-.06C103.26,209.73,103.48,208,103.77,206.23Z" style="fill:#263238"></path><path d="M94.2,279.76s.65-30.29-8-45.34-23.1-22.72-23.1-22.72S68.87,265.08,94.2,279.76Z" style="fill:#EAB308"></path><path d="M78.37,253.86a111.51,111.51,0,0,0,11.76,14.9q-2.61-9.28-6-18.26c-4.87-4.27-9.7-8.7-12.69-14.54a.09.09,0,0,1,.15-.09c3.21,5.18,7.51,9.32,12,13.3a234,234,0,0,0-12.1-26.33.19.19,0,0,1,.33-.2,143.89,143.89,0,0,1,7.59,13.83c-.82-3.24-1.47-6.55-2.3-9.77,0-.09.1-.12.14,0a54.66,54.66,0,0,1,3.56,12.84,154.19,154.19,0,0,1,7.65,20.73c-.22-4.54-.51-9.07-1-13.59a.08.08,0,0,1,.15,0A73.61,73.61,0,0,1,89,261.88c1.25,4.52,2.31,9.08,3.15,13.68,0,.13-.16.18-.19.06-.47-1.93-1-3.85-1.5-5.75,0,0-.07,0-.1,0-4.66-4.67-9.09-10-12-15.94C78.31,253.85,78.35,253.83,78.37,253.86Z" style="fill:#263238"></path><path d="M68.3,229.22c1,1,1.86,2.14,2.79,3.22a24.8,24.8,0,0,1,2.51,2.92.05.05,0,0,1-.07.07,14.72,14.72,0,0,1-2.89-2.85,24.29,24.29,0,0,1-2.47-3.26A.08.08,0,0,1,68.3,229.22Z" style="fill:#263238"></path><path d="M120,276.06l-1.09,14.35-3.3,43.36H86.84l-3.3-43.36-1.1-14.35H120Z" style="fill:#455a64"></path><path d="M120,276.06l-1.09,14.35H83.54l-1.1-14.35H120Z" style="fill:#37474f"></path><rect x="79.89" y="269.02" width="42.69" height="11" transform="translate(202.46 549.04) rotate(180)" style="fill:#455a64"></rect></g><g id="freepik--Floor--inject-11"><polygon points="50.72 333.3 131.79 333.05 212.86 332.96 375 332.8 537.14 332.96 618.21 333.05 699.28 333.3 618.21 333.54 537.14 333.63 375 333.8 212.86 333.63 131.79 333.54 50.72 333.3" style="fill:#263238"></polygon></g><g id="freepik--Device--inject-11"><rect x="167.67" y="94.68" width="414.66" height="277.38" style="fill:#dbdbdb"></rect><rect x="170.68" y="98.07" width="408.64" height="270.61" style="fill:#37474f"></rect><rect x="113.66" y="392.86" width="522.68" height="19.04" style="fill:#c7c7c7"></rect><polygon points="113.66 392.86 167.67 372.06 582.33 372.06 636.34 392.86 113.66 392.86" style="fill:#dbdbdb"></polygon><polygon points="172.49 385.49 207.34 372.06 542.66 372.06 577.51 385.49 172.49 385.49" style="fill:#263238"></polygon><rect x="193.77" y="118.63" width="362.45" height="229.49" style="fill:#fff"></rect><rect x="193.77" y="118.63" width="362.45" height="8.83" style="fill:#263238"></rect><path d="M200.49,123a2.19,2.19,0,1,1-2.19-2.19A2.19,2.19,0,0,1,200.49,123Z" style="fill:#c7c7c7"></path><path d="M209.43,123a2.19,2.19,0,1,1-2.19-2.19A2.19,2.19,0,0,1,209.43,123Z" style="fill:#fff"></path><path d="M218.37,123a2.19,2.19,0,1,1-2.19-2.19A2.19,2.19,0,0,1,218.37,123Z" style="fill:#EAB308"></path></g><g id="freepik--Loading--inject-11"><rect x="248.47" y="289.77" width="253.05" height="17" style="fill:#ebebeb"></rect><rect x="251.24" y="292.97" width="137.58" height="10.96" style="fill:#EAB308"></rect><path d="M331.87,265.8H334l-2.47,11.61h6.78l-.4,1.88H329Z" style="fill:#263238"></path><path d="M343.84,279.38a4.49,4.49,0,0,1-2.08-.46,4.71,4.71,0,0,1-1.52-1.24,5.56,5.56,0,0,1-.94-1.77,6.79,6.79,0,0,1-.32-2.11,7.34,7.34,0,0,1,.65-3,9.35,9.35,0,0,1,1.74-2.59,8.41,8.41,0,0,1,2.49-1.82,6.57,6.57,0,0,1,2.93-.69,4.4,4.4,0,0,1,2.08.48,4.58,4.58,0,0,1,1.51,1.25,5.67,5.67,0,0,1,.92,1.8,7,7,0,0,1,.31,2.1,7.26,7.26,0,0,1-.64,3,9.09,9.09,0,0,1-1.72,2.58,8.68,8.68,0,0,1-2.48,1.82A6.72,6.72,0,0,1,343.84,279.38Zm.42-1.92a4.08,4.08,0,0,0,2.05-.54,5.79,5.79,0,0,0,1.64-1.4,6.68,6.68,0,0,0,1.09-1.93,6.13,6.13,0,0,0,.39-2.11,5.49,5.49,0,0,0-.2-1.47,4,4,0,0,0-.59-1.22,3,3,0,0,0-1-.84,2.72,2.72,0,0,0-1.33-.31,4,4,0,0,0-2.06.54,6,6,0,0,0-1.65,1.4,6.43,6.43,0,0,0-1.09,1.93,6.13,6.13,0,0,0-.39,2.11,5.51,5.51,0,0,0,.2,1.48,3.88,3.88,0,0,0,.58,1.21,2.78,2.78,0,0,0,1,.84A2.81,2.81,0,0,0,344.26,277.46Z" style="fill:#263238"></path><path d="M358.4,265.8h1.88l2.16,13.49H360.2l-.53-3.67h-4.85l-2.07,3.67h-2.24Zm1.19,8.24-.76-5.79-3.3,5.79Z" style="fill:#263238"></path><path d="M366.94,265.8h4.58a5.76,5.76,0,0,1,2.25.4,4.12,4.12,0,0,1,1.56,1.1,4.6,4.6,0,0,1,.92,1.65,6.48,6.48,0,0,1,.31,2.05,8.94,8.94,0,0,1-.6,3.31,8,8,0,0,1-1.65,2.62,7.61,7.61,0,0,1-2.51,1.73,7.84,7.84,0,0,1-3.15.63h-4.57Zm2.11,11.61a4.81,4.81,0,0,0,2.2-.5,5,5,0,0,0,1.67-1.34,5.93,5.93,0,0,0,1.06-1.95,7,7,0,0,0,.37-2.29,5.22,5.22,0,0,0-.2-1.47,3.61,3.61,0,0,0-.61-1.15,2.87,2.87,0,0,0-1-.76,3.44,3.44,0,0,0-1.41-.27h-2.43l-2.07,9.73Z" style="fill:#263238"></path><path d="M380.09,265.82h2.15l-2.87,13.47h-2.15Z" style="fill:#263238"></path><path d="M385.24,265.8h1.67l5.11,9.72,2.06-9.7h2.14l-2.87,13.47h-1.74l-5.08-9.5-2,9.5h-2.15Z" style="fill:#263238"></path><path d="M405.67,277.63a6.09,6.09,0,0,1-4.05,1.75,4.42,4.42,0,0,1-2-.44,4.67,4.67,0,0,1-1.51-1.21,5.31,5.31,0,0,1-1-1.79,7,7,0,0,1-.33-2.16,7.45,7.45,0,0,1,.65-3,8.64,8.64,0,0,1,1.73-2.59,8.42,8.42,0,0,1,2.48-1.78,6.54,6.54,0,0,1,2.89-.67,4.75,4.75,0,0,1,2.92.81,4,4,0,0,1,1.45,2.14l-1.86,1.18a2.88,2.88,0,0,0-1.09-1.66,3.21,3.21,0,0,0-1.89-.55,4,4,0,0,0-2,.51,5.7,5.7,0,0,0-1.62,1.36,7,7,0,0,0-1.11,1.92,6.2,6.2,0,0,0-.4,2.2,5.23,5.23,0,0,0,.21,1.5,3.91,3.91,0,0,0,.63,1.22,3,3,0,0,0,1,.83,2.84,2.84,0,0,0,1.31.3,5.66,5.66,0,0,0,3.95-2l.31-1.43h-2.66l.34-1.57h4.42l-1.44,6.82h-1.79Z" style="fill:#263238"></path><path d="M409.14,279.29l.52-2.44h1.74l-.53,2.44Z" style="fill:#263238"></path><path d="M413.17,279.29l.51-2.44h1.75l-.53,2.44Z" style="fill:#263238"></path><path d="M417.2,279.29l.51-2.44h1.75l-.53,2.44Z" style="fill:#263238"></path><circle cx="374.96" cy="214.55" r="3.02" style="fill:#EAB308"></circle><circle cx="362.54" cy="219.42" r="2.66" style="fill:#EAB308"></circle><path d="M357.2,229.26a2.39,2.39,0,1,1-2.38,2.39A2.38,2.38,0,0,1,357.2,229.26Z" style="fill:#EAB308"></path><path d="M360.65,242.64a2,2,0,1,1,0,2.85A2,2,0,0,1,360.65,242.64Z" style="fill:#EAB308"></path><circle cx="374.3" cy="249.4" r="1.59" style="fill:#EAB308"></circle><path d="M385.9,245.35a1.15,1.15,0,0,1,1.63-1.63,1.14,1.14,0,0,1,0,1.63A1.15,1.15,0,0,1,385.9,245.35Z" style="fill:#EAB308"></path><path d="M392.05,233.15a.84.84,0,1,1,.84-.84A.84.84,0,0,1,392.05,233.15Z" style="fill:#EAB308"></path><path d="M387.61,220.31a.6.6,0,1,1,0-.84A.59.59,0,0,1,387.61,220.31Z" style="fill:#EAB308"></path></g><g id="freepik--Speedometer--inject-11"><circle cx="193.47" cy="223.49" r="97.82" transform="translate(-101.37 202.26) rotate(-45)" style="fill:#fff"></circle><path d="M291.28,223.49A97.64,97.64,0,1,1,283.91,186,98,98,0,0,1,291.28,223.49Zm0,0a97.64,97.64,0,1,0-7.49,37.41A97.77,97.77,0,0,0,291.28,223.49Z" style="fill:#263238"></path><path d="M264.37,223.49H192.55l50.59-50.59A70.69,70.69,0,0,1,264.37,223.49Z" style="fill:#EAB308"></path><path d="M264.37,223.49H192.55l50.59-50.59A70.69,70.69,0,0,1,264.37,223.49Z" style="fill:#fff;opacity:0.30000000000000004"></path><path d="M243.14,172.9l-50.59,50.59V152.6h.92A70.68,70.68,0,0,1,243.14,172.9Z" style="fill:#EAB308"></path><path d="M243.14,172.9l-50.59,50.59V152.6h.92A70.68,70.68,0,0,1,243.14,172.9Z" style="fill:#fff;opacity:0.5"></path><path d="M192.55,152.6v70.89l-49.67-49.68A70.63,70.63,0,0,1,192.55,152.6Z" style="fill:#EAB308"></path><path d="M192.55,152.6v70.89l-49.67-49.68A70.63,70.63,0,0,1,192.55,152.6Z" style="fill:#fff;opacity:0.7000000000000001"></path><path d="M192.55,223.49h-70a70.73,70.73,0,0,1,20.31-49.68Z" style="fill:#EAB308"></path><path d="M192.55,223.49h-70a70.73,70.73,0,0,1,20.31-49.68Z" style="fill:#fff;opacity:0.8"></path><path d="M192.55,223.49l-49.67,49.68a70.73,70.73,0,0,1-20.31-49.68Z" style="fill:#EAB308"></path><path d="M192.55,223.49l-49.67,49.68a70.73,70.73,0,0,1-20.31-49.68Z" style="fill:#fff;opacity:0.9"></path><path d="M264.37,223.49a70.69,70.69,0,0,1-21.23,50.59l-50.59-50.59Z" style="fill:#EAB308"></path><circle cx="193.47" cy="223.49" r="43.66" transform="translate(-57.79 379.21) rotate(-80.91)" style="fill:#fff"></circle><path d="M199.18,227.7a6.66,6.66,0,1,1-11.36-6.95c.29-.47,38.15-49.21,38.15-49.21S199.46,227.24,199.18,227.7Z" style="fill:#263238"></path><circle cx="193.47" cy="223.49" r="10.24" transform="translate(-101.37 202.26) rotate(-45)" style="fill:#263238"></circle><text transform="translate(158.48 277.63)" style="font-size:15.8258695602417px;fill:#263238;font-family:Raleway-Bold, Raleway;font-weight:700">200Mbps</text><path d="M147.28,186a49.62,49.62,0,0,1,15.44-14.49,60.15,60.15,0,0,1,19.87-7.66,61.16,61.16,0,0,1,21.29-.27,57.69,57.69,0,0,1,20,7,55.19,55.19,0,0,0-9.8-4,65.08,65.08,0,0,0-10.31-2.31,69.93,69.93,0,0,0-10.52-.64,62.36,62.36,0,0,0-10.47,1.15,61.12,61.12,0,0,0-19.66,7.35,55.58,55.58,0,0,0-8.58,6.13A46,46,0,0,0,147.28,186Z" style="fill:#263238"></path><path d="M160.15,183.55a39.57,39.57,0,0,1,9.9-7.36,46.88,46.88,0,0,1,11.55-4.53,49.12,49.12,0,0,1,12.32-1.43,53,53,0,0,1,12.23,1.7,69.85,69.85,0,0,0-12.23-.94,52.84,52.84,0,0,0-12.08,1.63,51.06,51.06,0,0,0-5.84,1.77c-1.9.72-3.75,1.6-5.58,2.5a56.93,56.93,0,0,0-5.33,3A33.87,33.87,0,0,0,160.15,183.55Z" style="fill:#263238"></path></g><g id="freepik--Rope--inject-11"><path d="M222,180.33v-1c11.28,0,276.34-.09,278.4-.05l0,1C498.36,180.24,224.79,180.33,222,180.33Z" style="fill:#a6a6a6"></path></g><g id="freepik--Character--inject-11"><path d="M518.33,444.93c2.13.69,62.78.16,65.08-1.33.87-.55,1.31-9.39,1.54-20.09,0-2.3.08-4.69.11-7.11L589.58,384l-40.55.24-3.43,32.4.24,7.12s-23.13,10.59-25.48,12.48S516.21,444.24,518.33,444.93Z" style="fill:#ad6359"></path><path d="M518.33,444.93c2.13.69,62.78.16,65.08-1.33,1.06-.68,1.49-13.58,1.65-27.2l-39.46.23.24,7.12s-23.13,10.59-25.48,12.48S516.21,444.24,518.33,444.93Z" style="fill:#fff"></path><path d="M518.33,444.93c2.13.69,62.78.16,65.08-1.33.87-.55,1.31-9.39,1.54-20.09l-39.11.24s-23.13,10.59-25.48,12.48S516.21,444.24,518.33,444.93Z" style="fill:#EAB308"></path><path d="M519.18,442.5c10.16-.34,51.2-.75,61.27-.31.08,0,.08.05,0,.06-10.07.56-51.1.63-61.27.41C519,442.66,519,442.5,519.18,442.5Z" style="fill:#263238"></path><path d="M524.25,434a8.14,8.14,0,0,1,6.1,2.43,7.93,7.93,0,0,1,2.32,5.4c0,.06-.11.07-.12,0a9.46,9.46,0,0,0-8.3-7.72A.06.06,0,1,1,524.25,434Z" style="fill:#263238"></path><path d="M541.91,424.79c4.07-.09,8.8,1.3,11.35,4.61.1.13-.08.27-.2.21a56.32,56.32,0,0,0-11.22-4.32A.26.26,0,0,1,541.91,424.79Z" style="fill:#263238"></path><path d="M538.78,426c4.07-.09,8.8,1.31,11.35,4.61.1.13-.08.27-.2.21a55.69,55.69,0,0,0-11.22-4.31A.26.26,0,0,1,538.78,426Z" style="fill:#263238"></path><path d="M535.65,427.3c4.06-.1,8.8,1.3,11.35,4.6.1.13-.08.27-.2.21a56.29,56.29,0,0,0-11.22-4.31A.25.25,0,0,1,535.65,427.3Z" style="fill:#263238"></path><path d="M532.51,428.55c4.07-.09,8.8,1.3,11.36,4.61.1.13-.08.26-.2.2a56.9,56.9,0,0,0-11.22-4.31A.25.25,0,0,1,532.51,428.55Z" style="fill:#263238"></path><path d="M577.77,432.55c4.57,0,4.62,7.07.05,7.1S573.2,432.58,577.77,432.55Z" style="fill:#263238"></path><path d="M537.79,419.93c2.22,2.82,5.58,4.57,8.5,6.55a.5.5,0,0,0,.73-.33.11.11,0,0,0,.12-.12,21.22,21.22,0,0,0-3.79-10.38c-1.28-1.76-3.89-3.4-5.94-1.68S536.49,418.29,537.79,419.93Zm-.22-3.37c.37-4.43,4.39-1.06,5.29.28a22.6,22.6,0,0,1,1.51,2.73,64.48,64.48,0,0,1,2.35,6c-1.38-1.06-2.83-2-4.24-3C540.8,421.37,537.37,419,537.57,416.56Z" style="fill:#263238"></path><path d="M561.57,423.31c-.34-2.66-3.38-3.21-5.52-2.78a21.32,21.32,0,0,0-9.8,5.1.11.11,0,0,0,0,.17.5.5,0,0,0,.31.74c3.49.51,7.15,1.48,10.69.91C559.33,427.11,561.9,425.82,561.57,423.31ZM552,426.23c-1.72-.21-3.42-.5-5.15-.65,1.92-1,3.78-2.05,5.79-2.85a23.91,23.91,0,0,1,3-1c1.57-.38,6.81-.15,4.08,3.37C558.2,427.05,554.07,426.48,552,426.23Z" style="fill:#263238"></path><path d="M647.31,233.73S601.21,314.41,600,320c-1.83,8.67-11,94.14-11,94.14l-45.37-.28s7.52-75.35,15.21-100.24c4.2-13.58,26.28-50.42,36.64-68.59.92-1.63.65-9.06.65-9.06Z" style="fill:#263238"></path><path d="M548,406.33c7-.14,28.34-.72,37.71,0,.07,0,.07.12,0,.13-3.21.5-30.67.17-37.71,0A.1.1,0,0,1,548,406.33Z" style="fill:#455a64"></path><path d="M639.37,241.18c-3,4.87-6.23,9.65-9.32,14.49s-6.18,9.68-9.23,14.55Q611.7,284.83,603,299.68a89.17,89.17,0,0,0-7.17,14.37,87.54,87.54,0,0,0-3.94,15.43c-.9,5.27-1.46,10.58-2,15.9q-.85,8.49-1.69,17-1.72,17.37-3.44,34.73c-.14,1.42-.28,2.84-.41,4.27,0,.2.36.24.38,0,1.3-11.51,2.36-23,3.52-34.57q.88-8.6,1.75-17.2c.54-5.34,1.05-10.68,1.81-16a106.09,106.09,0,0,1,3.26-15.47,74.56,74.56,0,0,1,6.59-15.08c5.56-9.86,11.45-19.56,17.34-29.23s11.94-19.49,18.16-29.08c.77-1.18,1.54-2.36,2.34-3.52C639.58,241.17,639.42,241.08,639.37,241.18Z" style="fill:#455a64"></path><path d="M629.07,448.22c2.23-.16,59.62-24.24,61.2-26.47a.85.85,0,0,0,.08-.43c0-2-4.11-8.88-7.56-17.94-.22-.58-1.74-3.27-3.85-6.89-5.81-9.94-16.07-27-16.07-27L625.36,385l18.38,26.79,2.89,6.5s-17.47,18.5-18.93,21.14S626.84,448.38,629.07,448.22Z" style="fill:#ad6359"></path><path d="M629.07,448.22c2.23-.16,59.62-24.24,61.2-26.47a.85.85,0,0,0,.08-.43c0-2-4.11-8.88-7.56-17.94-.22-.58-1.74-3.27-3.85-6.89l-35.2,15.27,2.89,6.5s-17.47,18.5-18.93,21.14S626.84,448.38,629.07,448.22Z" style="fill:#fff"></path><path d="M629.07,448.22c2.23-.16,59.62-24.24,61.2-26.47.6-.85-2.08-8.69-7.48-18.37l-36.16,14.88s-17.47,18.5-18.94,21.14S626.84,448.38,629.07,448.22Z" style="fill:#EAB308"></path><path d="M629,445.65c9.29-4.13,47.17-19.9,56.68-23.28.07,0,.09,0,0,.06-9.12,4.29-47.13,19.76-56.64,23.37C628.81,445.88,628.75,445.73,629,445.65Z" style="fill:#263238"></path><path d="M630.46,435.89a8.12,8.12,0,0,1,6.57,0,7.9,7.9,0,0,1,4.18,4.14c0,.06-.08.1-.11.05a9.44,9.44,0,0,0-10.59-4A.06.06,0,1,1,630.46,435.89Z" style="fill:#263238"></path><path d="M643.37,420.71c3.74-1.61,8.65-2.1,12.26,0,.14.08,0,.28-.11.27a56.18,56.18,0,0,0-12,.21A.26.26,0,0,1,643.37,420.71Z" style="fill:#263238"></path><path d="M640.94,423c3.74-1.61,8.65-2.09,12.26,0,.14.09,0,.28-.12.27a56.75,56.75,0,0,0-12,.21A.26.26,0,0,1,640.94,423Z" style="fill:#263238"></path><path d="M638.51,425.38c3.74-1.61,8.64-2.09,12.26,0,.14.08,0,.28-.12.27a56.09,56.09,0,0,0-12,.21A.26.26,0,0,1,638.51,425.38Z" style="fill:#263238"></path><path d="M636.08,427.71c3.73-1.61,8.64-2.09,12.25,0,.14.08,0,.27-.11.26a56.83,56.83,0,0,0-12,.21A.25.25,0,0,1,636.08,427.71Z" style="fill:#263238"></path><path d="M679.53,414.45c4.22-1.74,6.93,4.82,2.7,6.56S675.3,416.19,679.53,414.45Z" style="fill:#263238"></path><path d="M637.73,417.75c3.12,1.77,6.89,2.14,10.34,2.88.35.08.58-.28.55-.58.06,0,.11-.08.07-.16a21.29,21.29,0,0,0-7.4-8.19c-1.86-1.16-4.89-1.7-6.14.66S635.92,416.71,637.73,417.75Zm-1.46-3c-1.32-4.25,3.67-2.64,5-1.73a22.89,22.89,0,0,1,2.43,2c1.6,1.45,3,3.1,4.42,4.69-1.67-.47-3.36-.79-5-1.19C641.07,418,637,417.05,636.27,414.71Z" style="fill:#263238"></path><path d="M661,412c-1.31-2.33-4.33-1.7-6.15-.5a21.44,21.44,0,0,0-7.18,8.4.11.11,0,0,0,.08.15c0,.31.21.66.57.57,3.42-.83,7.18-1.3,10.25-3.16C660.4,416.32,662.28,414.16,661,412Zm-7.75,6.3c-1.68.45-3.36.81-5,1.33a63.33,63.33,0,0,1,4.3-4.81,23,23,0,0,1,2.37-2c1.31-.93,6.25-2.68,5,1.6C659.32,416.69,655.28,417.71,653.29,418.25Z" style="fill:#263238"></path><path d="M640.81,410.28l42-17.56s-53.27-76.28-53.73-82c-.4-5.07,22-49.49,22.78-62.36.81-13.89-6-24.56-13.43-31.13L596.1,236s3.7,7.55,11,11.55c0,0-21.69,51.29-20.23,67S640.81,410.28,640.81,410.28Z" style="fill:#263238"></path><path d="M638.84,402.28c6.07-2.7,4.29-2,10.39-4.64,3-1.29,22.6-9.73,25.6-10.44a.07.07,0,0,1,0,.12c-2.6,1.64-22.37,9.74-25.38,11-6.15,2.51-4.41,1.72-10.59,4.17A.1.1,0,0,1,638.84,402.28Z" style="fill:#455a64"></path><path d="M599.91,246.72a82.36,82.36,0,0,1,13.31,4.13.14.14,0,0,1-.09.27c-4.47-1.25-9-2.4-13.39-3.89C599.39,247.12,599.56,246.65,599.91,246.72Z" style="fill:#455a64"></path><path d="M605.05,244.86a20,20,0,0,1,1.15,2.32,5.44,5.44,0,0,1,.59,1.95c0,.13-.17.16-.26.08a6.69,6.69,0,0,1-1.11-1.83c-.38-.71-.78-1.42-1.14-2.14A.43.43,0,0,1,605.05,244.86Z" style="fill:#455a64"></path><path d="M604.47,240.78c-.28-.67-.55-1.34-.84-2s-.65-1.35-.89-2.06c0-.11-.22,0-.17.08.27.67.45,1.38.68,2.07s.45,1.37.69,2.06a39.8,39.8,0,0,0,1.55,3.77,4.67,4.67,0,0,1-2.1-.34,3.78,3.78,0,0,1-1.5-1.75c-.39-.75-.75-1.51-1.16-2.25a15.36,15.36,0,0,1-1.23-2.51c0-.11-.22,0-.17.08a28.63,28.63,0,0,0,2.38,5.34c.41.66.74,1.35,1.49,1.6a6.27,6.27,0,0,0,2.48.14c.1,0,.24,0,.2-.17C605.47,243.48,605,242.09,604.47,240.78Z" style="fill:#455a64"></path><path d="M606.43,249.23c-1.51,3.3-2.83,6.59-4.24,9.87s-2.65,6.46-3.9,9.72c-2.51,6.59-4.76,13.3-6.72,20.08q-1.44,5-2.65,10.13c-.8,3.41-2.64,10.53-2.64,14,0,5.95,8.68,21.33,10.27,24.52,1,2,1.29,1.69.82.7-1.34-2.79-9.52-20.54-9.91-25-.3-3.45,1.42-8.63,2.16-12s1.61-6.85,2.55-10.24c1.85-6.69,4.07-13.24,6.35-19.79,1.28-3.67,2.66-7.3,4-11s2.67-7,4.12-11C606.63,249.19,606.47,249.13,606.43,249.23Z" style="fill:#455a64"></path><path d="M638.33,238c-.76-.27-1.8.21-2.57.35a23.19,23.19,0,0,1-3,.34,24.38,24.38,0,0,1-3-.07,6.36,6.36,0,0,1-2.85-.71,14.12,14.12,0,0,1-3.67-3.8,22.2,22.2,0,0,1-2.89-4.93c0-.1-.19,0-.15.08.33,1,.57,2,1,3a19,19,0,0,0,1.43,2.66,11.52,11.52,0,0,0,3.81,4.21c1.76,1,4,.89,6,.76a23.73,23.73,0,0,0,3.35-.49c.8-.18,2.14-.33,2.64-1A.25.25,0,0,0,638.33,238Z" style="fill:#455a64"></path><path d="M670.65,384.83q-10.59-15.61-20.82-31.49t-20.16-32c-1.58-2.57-3.41-5.14-4.44-8-1.13-3.1-.55-6.13.4-9.19a156.58,156.58,0,0,1,6.28-16.46c2.36-5.39,4.92-10.7,7.43-16a154.49,154.49,0,0,0,7-16.13,27.49,27.49,0,0,0,.94-16.22c-1.48-5.41-4.59-10.24-7.83-14.75-.86-1.18-1.73-2.36-2.59-3.55-.06-.09-.2,0-.13.11,3.57,4.7,7,9.67,9.18,15.21a26.78,26.78,0,0,1,1.85,8.56,27.6,27.6,0,0,1-1.27,8.79c-1.64,5.54-4.27,10.8-6.71,16s-5.08,10.63-7.49,16a170.41,170.41,0,0,0-6.53,16.53c-.82,2.51-1.74,5.13-1.65,7.81.1,2.93,1.53,5.55,3,8,6.44,10.69,13.12,21.24,19.89,31.72s13.7,21,20.73,31.33q1.32,2,2.66,3.92C670.53,385.18,670.76,385,670.65,384.83Z" style="fill:#455a64"></path><path d="M597.26,186c-9,16.6-21.79,35.29-31.7,36-8.95.62-23.92-5.82-40.22-12.7-3.23-1.37,8.72-26,12-24.18,6.51,3.55,20.57,13.33,24.86,13.63,1.83.13,17.81-14.5,28.69-22.65C604.12,166.18,600.84,179.39,597.26,186Z" style="fill:#ad6359"></path><path d="M513.92,208.49c5.41,1.64,13.91,3.42,17.28,2.81,3.16-.59,9.1-24.33,6.33-26.12-8.61-5.56-22.41-7-27.77-4.81S508.31,206.78,513.92,208.49Z" style="fill:#ad6359"></path><path d="M650.87,339.59c-5.26,0-10.43-2.38-15.4-7.07-10.35-9.79-14.5-58.12-17-87-.81-9.44-1.51-17.6-2-18.4-2.55-1.71-113.27-46.43-116.08-46.84l.05-1c2,0,114.27,45.37,116.67,47.09.72.51,1.09,4.07,2.38,19.07,2.31,26.85,6.6,76.82,16.68,86.36,5,4.7,10.12,7,15.34,6.78,6.17-.24,12.54-3.94,18.94-11l.74.67c-6.59,7.27-13.2,11.08-19.64,11.33Z" style="fill:#a6a6a6"></path><path d="M518.67,178.74c2,2.23-1.78,3.31-1.78,3.31s5.81-.25,7,2.85-3.48,4.14-3.81,4.22c.31,0,5.65-.1,6.51,3.14s-3.93,3.72-4.24,3.74c.29.08,4.15,1.22,4.25,3.83.16,4.47-9.8,1.83-12.85,3.78,0,0,.54,4.83.58,5,0,0-7.34-1.59-9.75-5.86a3.13,3.13,0,0,1,.59-3.87s-3.16-.41-3.91-2.94c-.39-1.3,1.34-3.07,1.34-3.07a3.91,3.91,0,0,1-3-2.72c-.43-1.82,1.37-3.31,1.37-3.31s-2.22-1.54-2.05-3.55C499.19,179.25,514.37,174,518.67,178.74Z" style="fill:#ad6359"></path><path d="M501.17,186.57a0,0,0,0,1,0-.08,27.83,27.83,0,0,1,16-4.52c.18,0,.24.31,0,.33A57,57,0,0,0,501.17,186.57Z" style="fill:#263238"></path><path d="M502.51,192.88c-.06,0-.1-.07-.05-.11a26.16,26.16,0,0,1,17.72-3.85c.22,0,.38.29.12.26C516.09,188.79,507.25,190.76,502.51,192.88Z" style="fill:#263238"></path><path d="M522.75,196.22c-6-.79-11.74.43-17.41,2.53-.07,0-.1-.08,0-.12,2.5-1.78,6.25-2.74,9.23-3.24a16.09,16.09,0,0,1,8.26.62C522.88,196.05,522.88,196.24,522.75,196.22Z" style="fill:#263238"></path><path d="M516.89,182.05a18.32,18.32,0,0,1,3.32.47,6.1,6.1,0,0,1,2.88,1.41,2,2,0,0,1,.6,1.32,2.87,2.87,0,0,1-.3,1.45,3.6,3.6,0,0,1-2.4,1.67l-2.39.56,2.44.31a10,10,0,0,1,3.14.89,3.61,3.61,0,0,1,2,2.12,2,2,0,0,1-.88,2.43,6.18,6.18,0,0,1-3,.83l-2.9.15,2.78.81a9.61,9.61,0,0,1,2.21,1A3.84,3.84,0,0,1,526,199a1.85,1.85,0,0,1-.21,1.94,4.06,4.06,0,0,1-2,1,31.62,31.62,0,0,1-5,.63c-.85.07-1.7.14-2.55.26a6.09,6.09,0,0,0-2.45.71,6.66,6.66,0,0,1,2.47-.48c.85,0,1.7,0,2.55-.06a27.25,27.25,0,0,0,5.15-.38,4.78,4.78,0,0,0,2.48-1.17,2.63,2.63,0,0,0,.43-2.85,4.72,4.72,0,0,0-1.91-2,10.31,10.31,0,0,0-2.44-1.1l-.13,1a7.25,7.25,0,0,0,3.56-1,3,3,0,0,0,1.26-1.57,3.37,3.37,0,0,0,0-2,4.52,4.52,0,0,0-2.58-2.69,11.24,11.24,0,0,0-3.46-.93l0,.87A4.27,4.27,0,0,0,524,187a3.57,3.57,0,0,0,.29-1.82,2.66,2.66,0,0,0-.84-1.64,6.31,6.31,0,0,0-3.2-1.32A15.31,15.31,0,0,0,516.89,182.05Z" style="fill:#263238"></path><path d="M535.31,183.9s-20.26-16.36-22.78-6.22c-.75,3-.24,16.28,2.42,16.22,3.45-.06,4.27-5.64,4.23-9.22,0,0,5.5,6.14,10.92,3.58A14,14,0,0,0,535.31,183.9Z" style="fill:#ad6359"></path><path d="M512.79,176.85a12.39,12.39,0,0,0-.78,3.57,26.48,26.48,0,0,0-.11,3.67,41.22,41.22,0,0,0,.81,7.32,6.76,6.76,0,0,0,.65,1.84,2.63,2.63,0,0,0,.73.85,1.81,1.81,0,0,0,.54.28,1.86,1.86,0,0,0,.61.08,3,3,0,0,0,2-.82A5.71,5.71,0,0,0,518.4,192a11.16,11.16,0,0,0,1-3.65,25.53,25.53,0,0,0,.17-3.7l-.75.28a15.35,15.35,0,0,0,2.14,1.83,13.89,13.89,0,0,0,2.43,1.39,9.32,9.32,0,0,0,2.69.72,7.21,7.21,0,0,0,2.74-.2,8.15,8.15,0,0,1-2.7-.09,10,10,0,0,1-2.5-.92,12.31,12.31,0,0,1-2.24-1.46,13.83,13.83,0,0,1-1.91-1.83l-.71-.83,0,1.11a26.16,26.16,0,0,1-.28,3.56,10.87,10.87,0,0,1-1,3.33c-.5,1-1.33,1.87-2.27,1.87s-1.31-1.16-1.59-2.26-.48-2.34-.66-3.53-.34-2.39-.44-3.59A23.24,23.24,0,0,1,512.79,176.85Z" style="fill:#263238"></path><path d="M581.94,212.18l-14.34-18s14.56-14,23.74-19.66,13.14-2.31,7.46,9.94S581.94,212.18,581.94,212.18Z" style="fill:#EAB308"></path><path d="M571.07,192.42c2.2,2.2,4.21,4.62,6.2,7s3.89,4.8,5.68,7.32c0,.05,0,.11-.08.07-2.09-2.32-4.1-4.71-6.09-7.11s-4-4.74-5.8-7.22C570.94,192.44,571,192.37,571.07,192.42Z" style="fill:#263238"></path><path d="M574.58,203l7.36,9.23s11.18-15.46,16.86-27.72c2-4.22,2.76-7.37,2.61-9.47Z" style="opacity:0.1"></path><path d="M595.46,238.83l48.11-17.49s-20.47-37.58-35.5-47.66c-6.84-4.58-12-2.44-15.66,2.38-.91,1.21-10.2,25.53-8.6,31.83,2.08,8.16,7.59,9.82,7.59,9.82Z" style="fill:#EAB308"></path><path d="M605.43,172.2,591.93,177l.23-.51L604.88,172Zm3.77,2.28-19,6.77c-.06.16-.12.33-.19.5l19.54-7Zm3.37,2.85-24,8.57-.18.5,24.52-8.76Zm3,3L587,190.5l-.15.49,29-10.34Zm2.75,3.08L585.68,195c0,.16-.09.32-.13.48l33-11.79Zm2.59,3.14-36.34,13c0,.16-.07.32-.09.47l36.69-13.1Zm2.46,3.18-39.57,14.12c0,.15,0,.29,0,.44l39.88-14.23Zm2.37,3.2-41.91,15h0c0,.13.07.26.1.38l42.05-15Zm2.28,3.24-42.9,15.31c.07.12.13.25.19.37l43-15.33Zm2.23,3.27-43,15.33.29.32,42.89-15.31Zm2.16,3.28-41.48,14.81a3.82,3.82,0,0,0,.49.19v.06l41.21-14.71C632.54,203,632.46,202.83,632.39,202.71ZM634.5,206l-42.44,15.14.08.4,42.58-15.19Zm2.06,3.32L592.79,225l.08.4,43.91-15.66Zm2,3.33-45.06,16.08.08.41L638.8,213C638.72,212.91,638.65,212.79,638.58,212.67Zm2,3.35-46.31,16.53.08.4,46.43-16.57C640.69,216.26,640.62,216.14,640.56,216Zm1.93,3.37-47.51,17,.08.41,47.63-17A3.07,3.07,0,0,1,642.49,219.39Z" style="fill:#fff"></path><path d="M607.38,211.42a49.39,49.39,0,0,0-7,1.86c-1.13.41-2.23.87-3.32,1.35-.55.24-1.1.47-1.65.68a7.59,7.59,0,0,1-1.8.53s0,.09,0,.08a13,13,0,0,0,1.76-.2,13.53,13.53,0,0,0,1.65-.48c1.14-.41,2.27-.86,3.41-1.28,2.3-.84,4.6-1.67,7-2.34C607.54,211.59,607.49,211.4,607.38,211.42Z" style="fill:#263238"></path><path d="M613.49,213a51.43,51.43,0,0,0-6,.3c-1,.1-2,.27-2.94.46-.47.09-.93.19-1.39.3s-1,.3-1.52.41c-.05,0,0,.09,0,.08.49-.09,1-.09,1.48-.15l1.47-.19c1-.12,2-.23,3-.36,2-.26,3.93-.5,5.91-.69C613.61,213.11,613.59,213,613.49,213Z" style="fill:#263238"></path><path d="M614.83,176.28c24.18,10.58,53.39,41.45,46.79,48.29-6,6.24-30.58,13.17-41.13,14.92-3.1.52-6.63-23.69-3.31-24.25,4-.67,13.87-3.25,14.24-3.44.78-.39-19-22.25-25.67-30.47C596.44,169.88,605.76,172.3,614.83,176.28Z" style="fill:#ad6359"></path><path d="M586.05,222.46a3.74,3.74,0,0,0,1.94,3.81,5.55,5.55,0,0,0-1.41,3.5c0,2.29,3.63,3.25,3.63,3.25a6.82,6.82,0,0,0-.9,3.93c.24,2.19,3.74,3.68,3.74,3.68a6,6,0,0,0,1.38,4c2.59,2.87,8.39,1.84,12.08,1.22s13.59-5.82,15.58-6.62l-3.75-23.74s-17.35-1.95-21.59-.61C593.18,216,586.55,219.58,586.05,222.46Z" style="fill:#ad6359"></path><path d="M588.1,225.86c3.5-2.11,7.45-3.07,11.33-4.25.08,0,.12.11,0,.13-3.88,1.13-7.47,3-11.3,4.3A.1.1,0,0,1,588.1,225.86Z" style="fill:#263238"></path><path d="M590.23,232.7a10.77,10.77,0,0,1,2.66-.87c1-.24,1.92-.46,2.89-.67,1.94-.42,3.88-.79,5.84-1.11.08,0,.13.12,0,.14-1.93.42-3.86.87-5.77,1.37l-2.86.77a12.78,12.78,0,0,1-2.72.63A.14.14,0,0,1,590.23,232.7Z" style="fill:#263238"></path><path d="M593.13,240.61a7.17,7.17,0,0,1,2.43-.65l2.65-.53c1.77-.37,3.54-.73,5.29-1.16.09,0,.13.12,0,.14-1.78.44-3.55.9-5.34,1.33l-2.63.61a7,7,0,0,1-2.43.35A0,0,0,0,1,593.13,240.61Z" style="fill:#263238"></path><path d="M641.73,190.77,624,205.46s-14.32-14.27-20.14-23.33-2.57-13.09,9.79-7.66S641.73,190.77,641.73,190.77Z" style="fill:#EAB308"></path><path d="M622,201.33c2.16-2.24,4.54-4.3,6.89-6.34s4.72-4,7.2-5.83c0,0,.11,0,.07.08-2.27,2.14-4.62,4.2-7,6.23s-4.65,4.07-7.1,5.95C622,201.46,622,201.38,622,201.33Z" style="fill:#263238"></path><path d="M608.74,188.79c1.36,1.32,2.66,2.68,4,4s2.58,2.75,3.86,4.13l3.79,4.19,3.74,4.23H624c.45-.33.9-.66,1.36-1-.4.39-.81.77-1.22,1.15l-.07.06-.08-.07c-1.42-1.25-2.73-2.6-4.06-3.94s-2.61-2.73-3.87-4.13C613.49,194.66,611,191.79,608.74,188.79Z" style="fill:#263238"></path><path d="M615,195.81a18.43,18.43,0,0,1-4.65-3.78,15.8,15.8,0,0,1,2.49,1.69A17,17,0,0,1,615,195.81Z" style="fill:#263238"></path><path d="M596.7,141c1.49-3.26,7.08-10.15,14.25-6.94,10.24,4.59,7.13,25.61,11,33.26,7,13.86,4.75,25.49-3.6,25.54-9.35.07-15.85-11.42-10.87-32,3.11-12.85.76-19.39-1.9-19.59s-4.79,2.74-4.79,2.74Z" style="fill:#263238"></path><path d="M597.35,139.82a21.29,21.29,0,0,1,3.17-4,12.59,12.59,0,0,1,4.34-2.9,8.62,8.62,0,0,1,5.29-.32,11.13,11.13,0,0,1,4.67,2.51,12.47,12.47,0,0,1,3,4.36,22.93,22.93,0,0,1,1.39,5,46,46,0,0,1,.29,10.29,67.27,67.27,0,0,0-1-10.16,25.35,25.35,0,0,0-1.49-4.79,11.72,11.72,0,0,0-2.79-4,10.48,10.48,0,0,0-4.26-2.34,8,8,0,0,0-4.79.15,12.86,12.86,0,0,0-4.28,2.53,21.78,21.78,0,0,0-1.84,1.76Q598.15,138.82,597.35,139.82Z" style="fill:#263238"></path><path d="M609,153.79c-.35,2.07-.93,4.1-1.43,6.13S606.56,164,606.1,166s-.86,4.09-1.11,6.15a32,32,0,0,0-.24,6.18,16.31,16.31,0,0,0,1.41,5.9,17.55,17.55,0,0,0,3.62,4.91,13.06,13.06,0,0,0,5.25,3.09,11.59,11.59,0,0,0,3,.51,10.17,10.17,0,0,0,1.56-.05,5.3,5.3,0,0,0,1.52-.33,7.56,7.56,0,0,1-3.08.64,12.1,12.1,0,0,1-3.17-.31,13.39,13.39,0,0,1-3-1.15,13.73,13.73,0,0,1-2.64-1.84,16.23,16.23,0,0,1-2.19-2.35l-.48-.65-.45-.66a11,11,0,0,1-.81-1.41,16.82,16.82,0,0,1-1.55-6.24,40.5,40.5,0,0,1,1.58-12.56c.53-2,1.15-4.05,1.79-6.05S608.48,155.81,609,153.79Z" style="fill:#263238"></path><path d="M596.07,141c.1-1,1-2.15,1.62-2.24s5.08,2.52,5.33,3.77-2,2.05-2,2.05Z" style="fill:#EAB308"></path><path d="M601.61,176c-.08,1-3.76,8-8.23,8.49-1.46.15-2.63-7.77-2.63-7.77l-.22-.56-3.08-7.91,8.68-7.63,1.26-1s.7,2.22,1.54,5l.12.4a4,4,0,0,1,.15.45l.39,1.25c.09.32.18.64.27,1s.18.67.28,1A54.08,54.08,0,0,1,601.61,176Z" style="fill:#ad6359"></path><path d="M598.93,164.62a17,17,0,0,1-8.4,11.58l-3.08-7.91,8.68-7.63,1.26-1S598.09,161.85,598.93,164.62Z" style="fill:#263238"></path><path d="M575,155.14c-1.76,14.79,6.9,17.51,10.09,17.88,2.9.34,12.8,1.13,16.07-13.39s-3.05-20-9.63-21.15S576.7,140.35,575,155.14Z" style="fill:#ad6359"></path><path d="M577.42,154.49c.35.07.68.08,1,.12a1.63,1.63,0,0,0,1.07-.06.52.52,0,0,0,.21-.61,1.32,1.32,0,0,0-1.12-.72,1.93,1.93,0,0,0-1.37.25A.57.57,0,0,0,577.42,154.49Z" style="fill:#263238"></path><path d="M587.26,153.92a8,8,0,0,1-1-.26,1.67,1.67,0,0,1-1-.46.54.54,0,0,1,0-.64,1.32,1.32,0,0,1,1.31-.25,2,2,0,0,1,1.18.74A.56.56,0,0,1,587.26,153.92Z" style="fill:#263238"></path><path d="M585.1,157.58s.08,0,.07.09c-.1,1,0,2.19.84,2.59,0,0,0,.06,0,.05C584.89,160.08,584.84,158.52,585.1,157.58Z" style="fill:#263238"></path><path d="M586.08,156.59c1.63,0,1.53,3.26,0,3.27S584.71,156.59,586.08,156.59Z" style="fill:#263238"></path><path d="M586.72,156.78c.27.2.54.53.89.58s.71-.28,1-.6c0,0,0,0,0,0,0,.62-.27,1.26-.95,1.33s-1-.5-1.17-1.14C586.5,156.87,586.6,156.7,586.72,156.78Z" style="fill:#263238"></path><path d="M579.4,157s-.08.05-.08.09c0,1-.15,2.18-1.08,2.49a0,0,0,0,0,0,.06C579.37,159.49,579.57,157.94,579.4,157Z" style="fill:#263238"></path><path d="M578.52,155.9c-1.62-.16-1.83,3.1-.33,3.25S579.89,156,578.52,155.9Z" style="fill:#263238"></path><path d="M577.83,156.07c-.27.16-.55.46-.86.46s-.6-.37-.8-.73c0,0,0,0-.06,0-.05.62.11,1.28.7,1.44s1-.36,1.17-1C578,156.19,577.94,156,577.83,156.07Z" style="fill:#263238"></path><path d="M585,165.41c-.24.24-.47.57-.84.6a2.58,2.58,0,0,1-1.09-.24s-.07,0,0,0a1.37,1.37,0,0,0,1.3.54,1.09,1.09,0,0,0,.78-.91C585.1,165.39,585,165.37,585,165.41Z" style="fill:#263238"></path><path d="M580.91,161.56s-.27,1.5-.31,2.22c0,.06.17.1.41.13h0a3.41,3.41,0,0,0,3.35-1.12.08.08,0,0,0-.1-.11,5.05,5.05,0,0,1-3.14.75c0-.2.56-2.55.45-2.57a6.08,6.08,0,0,0-1.64.3c.49-3.15,1.47-6.2,1.91-9.34a.1.1,0,0,0-.19,0,51.84,51.84,0,0,0-2.48,10C579.13,162.14,580.62,161.67,580.91,161.56Z" style="fill:#263238"></path><path d="M581.12,163.64a4.22,4.22,0,0,0,1.56,1.42,2,2,0,0,0,1.13.16c.84-.15.91-.9.81-1.56a4.36,4.36,0,0,0-.29-1A5.39,5.39,0,0,1,581.12,163.64Z" style="fill:#263238"></path><path d="M582.68,165.06a2,2,0,0,0,1.13.16c.84-.15.91-.9.81-1.56A1.93,1.93,0,0,0,582.68,165.06Z" style="fill:#ff99ba"></path><path d="M599.74,160.26c-3.66-.25-4.33-11.53-4.4-12.91,0,.87,0,5.5-.39,5.67a3.32,3.32,0,0,1-1.14-.25h0a11.75,11.75,0,0,0-.08-1.66c0-.26-.12.55-.29,1.55l-.67-.22a13.49,13.49,0,0,0-.23-3.53c-.09-.43-.27,1.53-.75,3.23a44.06,44.06,0,0,0-9.51-2c-.91-.07-1.7-.08-2.4-.07,0-1.37.25-2.82.14-2.51a13.29,13.29,0,0,0-.66,2.52l-1,0c0-1.93,1-5,.67-4.52a13.65,13.65,0,0,0-2,4.69c-1.32.21-1.69.45-1.72.11a16.15,16.15,0,0,1,5.24-9.81c4.71-4.14,13.87-4.91,18.78,1.89,0,0,4.14,2.91,4.65,7.38S601.85,160.4,599.74,160.26Z" style="fill:#263238"></path><path d="M597.68,160.1s3.4-4.54,5.47-3.32-.58,7.88-3.09,8.73a2.52,2.52,0,0,1-3.33-1.46Z" style="fill:#ad6359"></path><path d="M602.34,158.67s0,.05,0,.07a6.34,6.34,0,0,0-3.41,3.87,1.39,1.39,0,0,1,2.09-.31s0,.1,0,.09a1.53,1.53,0,0,0-1.72.49,7.54,7.54,0,0,0-.86,1.35c-.09.15-.36.06-.3-.12l0,0C598.14,161.86,600,158.82,602.34,158.67Z" style="fill:#263238"></path></g></svg>